# xmcd CD database file generated by Grip 3.2.0
# 
# Track frame offsets:
#       150
#       22790
#       44098
#       64663
#       87481
#       100827
#       127538
#       151538
#       172459
#       200171
#       217854
#       237121
#       252514
#       270287
#       284605
#       302955
# 
# Disc length: 4382 seconds
# 
# Revision: 1
# Processed by: cddbd v1.5.2PL0 Copyright (c) Steve Scherf et al.
# Submitted via: Grip 3.2.0
# 
DISCID=dd111c10
DTITLE=Various Artist - Broken Nightlights
DYEAR=2006
DGENRE=Industrial
TTITLE0=Atonalis - Downloadthedown
TTITLE1=Beauty's Confusion - Whirlwind (Remix)
TTITLE2=Detritus - Dilwyn
TTITLE3=Clover - Hey
TTITLE4=Opgave - Writing The Silver
TTITLE5=Arc Lab - Why Be You?
TTITLE6=Cinephile - Comatose
TTITLE7=Lacunae - Stars Burn Out
TTITLE8=Leaf - The Ridge
TTITLE9=Sunday Munich - Anna Kareena
TTITLE10=Ognihs - The Distance (Between)
TTITLE11=Atomica - Delorian
TTITLE12=DJ Inzi - Jazz For Wind
TTITLE13=Moshe - Redeem All Sorrows
TTITLE14=Saltillo - Denim
TTITLE15=Antenne - Redmoon
EXTD=
EXTT0=
EXTT1=
EXTT2=
EXTT3=
EXTT4=
EXTT5=
EXTT6=
EXTT7=
EXTT8=
EXTT9=
EXTT10=
EXTT11=
EXTT12=
EXTT13=
EXTT14=
EXTT15=
PLAYORDER=
